<?xml version="1.0" standalone="no"?>
<!DOCTYPE svg PUBLIC "-//W3C//DTD SVG 20010904//EN"
 "http://www.w3.org/TR/2001/REC-SVG-20010904/DTD/svg10.dtd">
<svg version="1.0" xmlns="http://www.w3.org/2000/svg"
 width="1280.000000pt" height="1280.000000pt" viewBox="0 0 1280.000000 1280.000000"
 preserveAspectRatio="xMidYMid meet">

<g transform="translate(0.000000,1280.000000) scale(0.100000,-0.100000)"
fill="#000000" stroke="none">
<path d="M970 6440 l0 -2070 440 0 440 0 0 135 c0 74 4 135 8 135 4 0 28 -21
52 -46 202 -206 510 -314 865 -300 213 7 361 44 539 132 492 244 807 754 832
1344 20 468 -134 900 -434 1212 -220 229 -480 368 -775 414 -122 20 -383 14
-492 -10 -113 -25 -225 -65 -305 -108 -87 -47 -229 -155 -254 -192 -9 -14 -21
-26 -26 -26 -6 0 -10 260 -10 725 l0 725 -440 0 -440 0 0 -2070z m1841 94
c161 -57 291 -166 362 -303 66 -126 88 -224 88 -391 -1 -426 -282 -710 -705
-710 -286 0 -505 129 -622 365 -57 116 -76 207 -76 365 0 147 21 241 79 359
52 105 169 222 273 274 125 62 202 77 370 74 131 -3 153 -6 231 -33z"/>
<path d="M9852 8357 c-59 -63 11 -152 93 -121 27 11 45 62 33 96 -18 52 -88
66 -126 25z"/>
<path d="M2230 8050 l0 -310 130 0 c173 0 220 11 275 64 35 33 45 50 50 88 8
55 -6 106 -42 148 l-25 30 20 25 c41 51 36 142 -10 200 -41 53 -87 65 -250 65
l-148 0 0 -310z m287 154 c15 -24 15 -29 2 -53 -13 -23 -21 -26 -82 -29 l-67
-3 0 56 0 55 65 0 c59 0 66 -2 82 -26z m19 -229 c19 -25 18 -54 -3 -77 -13
-14 -31 -18 -90 -18 l-73 0 0 61 0 61 76 -4 c60 -3 79 -7 90 -23z"/>
<path d="M3620 8255 l0 -104 -37 22 c-47 27 -133 29 -182 3 -162 -86 -162
-336 0 -422 49 -26 135 -24 182 3 36 22 37 22 37 3 0 -18 7 -20 65 -20 l65 0
0 310 0 310 -65 0 -65 0 0 -105z m-29 -214 c24 -24 29 -38 29 -76 0 -38 -5
-52 -29 -76 -39 -39 -106 -41 -148 -5 -25 21 -28 31 -28 81 0 50 3 60 28 81
42 36 109 34 148 -5z"/>
<path d="M5130 8050 l0 -310 70 0 70 0 0 100 0 100 64 0 c34 0 78 5 97 11 142
48 191 219 96 334 -52 63 -91 75 -254 75 l-143 0 0 -310z m287 154 c21 -21 24
-32 19 -62 -8 -53 -36 -72 -107 -72 l-59 0 0 80 0 80 60 0 c52 0 65 -4 87 -26z"/>
<path d="M7110 8050 l0 -311 68 3 67 3 5 174 5 174 75 -123 c41 -68 79 -123
85 -124 5 -1 43 55 85 123 l75 124 5 -174 5 -174 68 -3 67 -3 0 311 0 310 -69
0 -69 0 -82 -136 c-45 -74 -85 -133 -88 -130 -3 3 -40 63 -83 133 l-77 128
-71 3 -71 3 0 -311z"/>
<path d="M8370 8050 l0 -310 64 0 65 0 3 146 c3 146 3 146 31 170 34 29 66 31
100 3 26 -20 27 -22 29 -167 l3 -147 63 -3 62 -3 0 166 c0 118 -4 175 -14 198
-38 90 -150 121 -243 67 l-33 -19 0 104 0 105 -65 0 -65 0 0 -310z"/>
<path d="M2875 8186 c-50 -19 -117 -91 -133 -143 -28 -93 -8 -177 58 -244 69
-72 156 -86 237 -39 30 18 31 18 36 -1 4 -16 14 -19 66 -19 l61 0 0 225 0 226
-61 -2 c-49 -2 -63 -6 -66 -20 -5 -16 -7 -16 -37 2 -45 26 -112 32 -161 15z
m166 -145 c24 -24 29 -38 29 -76 0 -64 -39 -105 -100 -105 -52 0 -76 13 -95
50 -19 37 -19 73 0 110 20 38 41 49 93 50 35 0 49 -6 73 -29z"/>
<path d="M3990 8191 c-108 -35 -161 -110 -161 -228 0 -175 170 -287 309 -203
32 20 32 20 32 0 0 -18 7 -20 65 -20 l65 0 -2 223 -3 222 -62 3 c-59 3 -63 1
-63 -18 l0 -22 -34 21 c-38 24 -109 34 -146 22z m131 -131 c10 -6 26 -24 34
-40 41 -79 -6 -159 -93 -160 -63 0 -102 40 -102 105 0 64 39 105 100 105 23 0
50 -5 61 -10z"/>
<path d="M4596 8190 c-15 -5 -37 -17 -47 -26 -16 -15 -19 -15 -19 -2 0 21 -15
26 -80 24 l-55 -1 0 -220 0 -220 65 0 65 0 5 148 c5 141 6 150 29 168 27 22
49 24 84 8 39 -18 47 -50 47 -194 l0 -135 66 0 66 0 -4 168 c-3 188 -14 225
-73 262 -38 24 -108 33 -149 20z"/>
<path d="M5795 8191 c-104 -27 -175 -117 -175 -220 0 -157 128 -261 289 -233
60 10 128 49 138 78 2 6 -19 23 -46 37 -46 25 -51 26 -77 12 -53 -27 -142 -11
-157 30 -6 13 13 15 148 15 147 0 154 1 160 21 16 49 -14 148 -59 197 -47 53
-150 82 -221 63z m113 -127 c12 -8 27 -24 32 -35 10 -18 7 -19 -85 -19 -59 0
-95 4 -95 10 0 6 11 22 25 35 29 29 88 34 123 9z"/>
<path d="M6567 8186 c-79 -29 -116 -94 -97 -168 13 -46 49 -73 138 -102 53
-17 67 -25 67 -41 0 -32 -67 -33 -99 -2 l-24 25 -51 -29 c-28 -16 -51 -34 -51
-41 0 -24 70 -76 120 -88 114 -27 218 17 241 102 22 84 -25 144 -142 178 -54
17 -70 25 -67 38 4 24 55 28 79 6 18 -16 21 -15 73 12 51 26 53 29 40 49 -37
56 -155 88 -227 61z"/>
<path d="M7946 8185 c-87 -31 -140 -113 -140 -220 0 -82 23 -134 78 -183 64
-56 173 -66 229 -22 25 20 25 20 30 -1 5 -18 12 -20 69 -17 l63 3 0 220 0 220
-63 3 c-57 3 -64 1 -69 -18 -5 -18 -8 -19 -22 -7 -21 19 -77 37 -110 37 -14
-1 -43 -7 -65 -15z m168 -146 c60 -71 16 -179 -74 -179 -52 0 -86 22 -100 66
-15 44 -5 86 27 118 20 21 36 26 73 26 42 0 52 -4 74 -31z"/>
<path d="M9006 8185 c-87 -31 -140 -114 -140 -220 0 -82 22 -134 78 -183 63
-55 174 -65 230 -21 23 18 24 18 29 -2 5 -18 12 -20 69 -17 l63 3 0 220 0 220
-45 2 c-62 3 -90 -5 -90 -24 0 -15 -2 -15 -17 -1 -19 17 -86 38 -118 38 -11
-1 -37 -7 -59 -15z m165 -144 c24 -24 29 -38 29 -76 0 -64 -39 -105 -100 -105
-22 0 -52 7 -65 16 -35 23 -51 81 -35 128 15 47 44 66 98 66 35 0 49 -6 73
-29z"/>
<path d="M9527 8188 c-103 -27 -142 -158 -67 -222 16 -13 60 -34 97 -46 81
-27 91 -34 73 -55 -19 -23 -67 -19 -96 10 l-24 24 -53 -30 c-28 -17 -53 -32
-55 -34 -7 -6 53 -67 82 -82 45 -24 160 -23 210 1 68 34 96 118 62 185 -19 35
-46 53 -116 76 -76 25 -90 33 -84 50 8 19 54 19 81 0 21 -14 26 -14 73 10 27
14 50 29 50 34 0 18 -70 70 -107 80 -45 13 -75 12 -126 -1z"/>
<path d="M10175 8191 c-80 -20 -115 -62 -115 -137 0 -70 33 -104 133 -136 58
-18 72 -27 72 -43 0 -16 -8 -21 -37 -23 -30 -3 -43 2 -61 22 l-23 24 -52 -30
c-29 -16 -52 -33 -52 -37 0 -17 35 -53 68 -70 53 -26 95 -34 152 -26 63 9 110
40 134 88 39 80 -11 161 -120 192 -32 10 -65 23 -73 30 -33 32 36 50 71 18 18
-16 22 -15 72 12 53 28 54 30 38 53 -32 48 -138 81 -207 63z"/>
<path d="M11276 8185 c-87 -31 -140 -114 -140 -220 0 -82 22 -134 78 -183 64
-56 173 -66 229 -21 32 24 37 24 37 -1 0 -18 7 -20 65 -20 l65 0 -2 223 -3
222 -62 3 c-58 3 -63 1 -63 -18 0 -23 -13 -26 -29 -6 -12 14 -85 36 -118 36
-10 -1 -35 -7 -57 -15z m166 -143 c27 -25 31 -36 31 -77 0 -41 -4 -52 -31 -77
-47 -42 -124 -36 -159 11 -31 42 -20 122 20 153 36 28 101 23 139 -10z"/>
<path d="M6157 8183 c-4 -3 -7 -105 -7 -225 l0 -218 64 0 64 0 4 126 c3 124 3
126 31 150 15 13 46 27 68 30 l39 7 0 68 c0 67 -1 69 -25 69 -37 0 -82 -26
-99 -58 l-15 -27 -1 43 0 42 -58 0 c-32 0 -62 -3 -65 -7z"/>
<path d="M9847 8183 c-4 -3 -7 -105 -7 -225 l0 -218 65 0 65 0 0 219 c0 190
-2 220 -16 225 -21 8 -99 8 -107 -1z"/>
<path d="M10440 8177 c0 -16 124 -409 134 -426 4 -6 32 -11 65 -11 l58 0 34
120 c23 81 36 115 41 103 4 -10 21 -64 38 -120 l32 -103 58 0 59 0 71 219 c38
120 70 220 70 223 0 3 -29 6 -65 7 -75 2 -71 8 -106 -129 -12 -47 -25 -88 -29
-93 -3 -4 -19 38 -35 94 -16 56 -36 108 -43 116 -10 9 -31 13 -65 11 -44 -3
-51 -6 -58 -28 -4 -14 -20 -65 -35 -115 l-27 -90 -18 60 c-9 33 -24 86 -33
118 l-17 57 -64 0 c-48 0 -65 -4 -65 -13z"/>
<path d="M5880 7405 c-8 -2 -49 -9 -90 -15 -208 -34 -403 -130 -555 -272 l-65
-60 0 136 0 136 -445 0 -445 0 0 -2070 0 -2070 445 0 445 0 0 729 0 730 53
-53 c151 -150 345 -246 585 -287 663 -113 1290 264 1547 931 87 225 123 473
104 725 -18 249 -65 428 -169 640 -176 361 -495 642 -850 749 -136 41 -249 56
-404 55 -77 -1 -148 -3 -156 -4z m172 -850 c186 -39 351 -162 437 -326 67
-126 86 -210 86 -379 0 -167 -19 -252 -83 -375 -52 -100 -173 -219 -272 -268
-124 -60 -184 -72 -355 -71 -134 0 -158 3 -228 26 -222 74 -380 244 -443 478
-25 92 -26 330 -1 420 40 146 118 273 220 359 65 55 192 117 277 135 88 19
271 20 362 1z"/>
<path d="M9048 7394 c-112 -21 -258 -75 -341 -127 -64 -41 -161 -128 -201
-182 -14 -18 -15 -7 -16 113 l0 132 -445 0 -445 0 0 -1480 0 -1480 445 0 445
0 0 898 c0 862 1 902 20 976 52 203 171 318 361 347 189 30 360 -44 437 -189
69 -129 66 -78 70 -1104 l3 -928 439 0 439 0 4 913 c3 841 4 917 21 972 58
196 180 307 367 336 193 30 368 -50 442 -202 57 -115 57 -114 57 -1106 l0
-913 446 0 445 0 -4 1003 c-3 847 -6 1015 -19 1083 -78 408 -273 689 -583 841
-162 79 -321 113 -529 113 -269 0 -472 -58 -652 -186 -58 -41 -194 -179 -194
-196 0 -5 -28 26 -62 69 -109 134 -251 225 -433 279 -79 23 -111 27 -265 30
-124 2 -198 -1 -252 -12z"/>
</g>
</svg>
