<?xml version="1.0" standalone="no"?>
<!DOCTYPE svg PUBLIC "-//W3C//DTD SVG 20010904//EN"
 "http://www.w3.org/TR/2001/REC-SVG-20010904/DTD/svg10.dtd">
<svg version="1.0" xmlns="http://www.w3.org/2000/svg"
 width="250.000000pt" height="150.000000pt" viewBox="0 0 250.000000 150.000000"
 preserveAspectRatio="xMidYMid meet">

<g transform="translate(0.000000,150.000000) scale(0.100000,-0.100000)"
fill="#000000" stroke="none">
<path d="M190 760 l0 -240 84 0 c56 0 86 4 88 12 3 8 16 7 46 -5 53 -21 180
-22 248 -2 97 28 165 114 149 186 -9 39 -58 95 -105 119 -81 41 -217 48 -299
14 -18 -8 -35 -14 -37 -14 -2 0 -4 38 -4 85 l0 85 -85 0 -85 0 0 -240z m407
-10 c59 -36 54 -103 -10 -133 -72 -35 -196 -12 -219 39 -29 64 29 114 132 114
47 0 74 -6 97 -20z"/>
<path d="M440 944 c0 -35 1 -35 38 -32 32 3 37 7 38 28 2 29 -11 40 -48 40
-25 0 -28 -3 -28 -36z m50 16 c0 -5 -7 -10 -15 -10 -8 0 -15 5 -15 10 0 6 7
10 15 10 8 0 15 -4 15 -10z m10 -30 c0 -5 -9 -10 -20 -10 -11 0 -20 5 -20 10
0 6 9 10 20 10 11 0 20 -4 20 -10z"/>
<path d="M710 970 c0 -5 -11 -10 -24 -10 -13 0 -28 -6 -35 -13 -16 -20 6 -37
46 -37 31 0 33 2 33 35 0 19 -4 35 -10 35 -5 0 -10 -4 -10 -10z m-2 -37 c2 -8
-5 -13 -17 -13 -21 0 -35 13 -24 24 10 10 36 3 41 -11z"/>
<path d="M1000 945 c0 -24 5 -35 15 -35 8 0 15 5 15 10 0 6 8 10 19 10 10 0
23 6 30 13 16 20 -6 37 -46 37 -31 0 -33 -2 -33 -35z m58 13 c-6 -18 -28 -21
-28 -4 0 9 7 16 16 16 9 0 14 -5 12 -12z"/>
<path d="M1390 945 c0 -19 5 -35 10 -35 6 0 10 10 10 22 0 20 1 20 18 5 17
-15 19 -15 35 0 16 16 17 16 17 -5 0 -13 6 -22 15 -22 10 0 15 11 15 35 0 38
-13 44 -42 18 -17 -15 -19 -15 -36 0 -29 26 -42 20 -42 -18z"/>
<path d="M1640 945 c0 -19 5 -35 10 -35 6 0 10 9 10 21 0 14 5 19 18 17 9 -2
17 -10 17 -17 0 -8 6 -16 13 -18 15 -6 16 19 0 35 -7 7 -20 12 -30 12 -10 0
-18 5 -18 10 0 6 -4 10 -10 10 -5 0 -10 -16 -10 -35z"/>
<path d="M1928 973 c7 -3 16 -2 19 1 4 3 -2 6 -13 5 -11 0 -14 -3 -6 -6z"/>
<path d="M544 945 c-9 -23 5 -35 42 -35 30 0 34 3 34 25 0 22 -4 25 -35 25
-22 0 -38 -6 -41 -15z m54 -13 c2 -7 -6 -12 -17 -12 -21 0 -27 11 -14 24 9 9
26 2 31 -12z"/>
<path d="M761 951 c-27 -17 -4 -41 39 -41 37 0 41 2 38 23 -2 16 -10 23 -33
25 -16 1 -36 -2 -44 -7z m50 -16 c0 -5 -9 -11 -21 -13 -20 -3 -27 8 -13 22 10
9 34 3 34 -9z"/>
<path d="M860 936 c0 -31 15 -35 23 -6 3 11 10 20 17 20 7 0 14 -9 17 -20 7
-27 25 -25 21 3 -2 18 -10 23 -40 25 -35 3 -38 1 -38 -22z"/>
<path d="M1111 951 c-24 -16 -5 -41 31 -40 31 1 32 1 8 9 l-25 8 28 1 c18 1
27 6 25 14 -6 15 -48 20 -67 8z m46 -7 c-3 -3 -12 -4 -19 -1 -8 3 -5 6 6 6 11
1 17 -2 13 -5z"/>
<path d="M1205 951 c-7 -6 -6 -41 0 -41 5 0 45 38 45 43 0 5 -41 3 -45 -2z"/>
<path d="M1275 950 c-3 -6 2 -13 11 -17 16 -6 16 -7 -2 -14 -16 -6 -15 -8 8
-8 35 -1 45 15 16 25 -22 7 -22 7 -3 15 19 7 19 8 -2 8 -12 1 -25 -4 -28 -9z"/>
<path d="M1534 945 c-9 -23 5 -35 42 -35 30 0 34 3 34 25 0 22 -4 25 -35 25
-22 0 -38 -6 -41 -15z m54 -13 c2 -7 -6 -12 -17 -12 -21 0 -27 11 -14 24 9 9
26 2 31 -12z"/>
<path d="M1742 948 c-18 -18 5 -38 44 -38 30 0 34 3 34 25 0 22 -4 25 -33 25
-18 0 -38 -5 -45 -12z m56 -15 c2 -8 -5 -13 -17 -13 -21 0 -35 13 -24 24 10
10 36 3 41 -11z"/>
<path d="M1845 949 c-4 -6 3 -13 16 -16 22 -6 22 -7 3 -14 -16 -6 -15 -8 9 -8
30 -1 37 16 10 26 -15 6 -15 7 3 14 16 6 15 8 -8 8 -15 1 -30 -4 -33 -10z"/>
<path d="M1927 953 c-11 -10 -8 -43 3 -43 6 0 10 11 10 25 0 26 -2 29 -13 18z"/>
<path d="M1975 950 c-3 -6 2 -13 11 -17 16 -6 16 -7 -2 -14 -16 -6 -15 -8 8
-8 35 -1 45 15 16 25 -22 7 -22 7 -3 15 19 7 19 8 -2 8 -12 1 -25 -4 -28 -9z"/>
<path d="M2052 935 c12 -27 34 -33 41 -12 3 9 8 9 21 -3 16 -13 20 -12 32 5 8
10 14 22 14 27 0 13 -18 9 -23 -4 -3 -10 -8 -10 -21 1 -14 12 -18 12 -30 -4
-12 -16 -13 -16 -19 -1 -4 9 -11 16 -16 16 -7 0 -6 -9 1 -25z"/>
<path d="M2184 945 c-9 -23 5 -35 42 -35 30 0 34 3 34 25 0 22 -4 25 -35 25
-22 0 -38 -6 -41 -15z m54 -13 c2 -7 -6 -12 -17 -12 -21 0 -27 11 -14 24 9 9
26 2 31 -12z"/>
<path d="M1103 860 c-23 -5 -51 -14 -62 -19 -26 -14 -31 -14 -31 4 0 12 -16
15 -85 15 l-85 0 0 -240 0 -240 85 0 85 0 0 80 c0 44 1 80 3 80 2 0 25 -7 51
-16 35 -12 72 -15 139 -12 78 3 100 8 146 33 59 32 86 63 100 111 11 39 -8 96
-45 135 -53 56 -203 90 -301 69z m134 -107 c71 -33 64 -109 -13 -139 -56 -21
-144 -15 -182 13 -21 16 -27 28 -27 59 0 32 5 42 34 61 42 28 135 32 188 6z"/>
<path d="M1730 856 c-25 -7 -53 -16 -62 -21 -13 -5 -18 -3 -18 9 0 13 -13 16
-80 16 l-80 0 0 -172 0 -173 80 0 80 0 0 101 c0 86 3 105 20 127 24 30 75 41
118 26 38 -13 41 -23 45 -154 l2 -100 83 -3 82 -3 0 106 c0 59 4 115 10 125
13 24 74 44 108 35 56 -14 62 -28 62 -149 l0 -111 83 0 82 0 3 115 c3 142 -9
172 -82 209 -66 34 -199 36 -262 5 -40 -19 -42 -19 -75 -2 -47 24 -143 31
-199 14z"/>
</g>
</svg>
